<svg xmlns="http://www.w3.org/2000/svg" viewBox="0 0 41 41" shape-rendering="crispEdges"><rect width="41" height="41" fill="white"/><path d="M6 6h1v1h-1zM7 6h1v1h-1zM8 6h1v1h-1zM9 6h1v1h-1zM10 6h1v1h-1zM11 6h1v1h-1zM12 6h1v1h-1zM16 6h1v1h-1zM17 6h1v1h-1zM18 6h1v1h-1zM19 6h1v1h-1zM25 6h1v1h-1zM26 6h1v1h-1zM28 6h1v1h-1zM29 6h1v1h-1zM30 6h1v1h-1zM31 6h1v1h-1zM32 6h1v1h-1zM33 6h1v1h-1zM34 6h1v1h-1zM6 7h1v1h-1zM12 7h1v1h-1zM14 7h1v1h-1zM15 7h1v1h-1zM16 7h1v1h-1zM19 7h1v1h-1zM20 7h1v1h-1zM21 7h1v1h-1zM22 7h1v1h-1zM23 7h1v1h-1zM28 7h1v1h-1zM34 7h1v1h-1zM6 8h1v1h-1zM8 8h1v1h-1zM9 8h1v1h-1zM10 8h1v1h-1zM12 8h1v1h-1zM15 8h1v1h-1zM16 8h1v1h-1zM20 8h1v1h-1zM21 8h1v1h-1zM22 8h1v1h-1zM24 8h1v1h-1zM28 8h1v1h-1zM30 8h1v1h-1zM31 8h1v1h-1zM32 8h1v1h-1zM34 8h1v1h-1zM6 9h1v1h-1zM8 9h1v1h-1zM9 9h1v1h-1zM10 9h1v1h-1zM12 9h1v1h-1zM14 9h1v1h-1zM18 9h1v1h-1zM19 9h1v1h-1zM23 9h1v1h-1zM24 9h1v1h-1zM26 9h1v1h-1zM28 9h1v1h-1zM30 9h1v1h-1zM31 9h1v1h-1zM32 9h1v1h-1zM34 9h1v1h-1zM6 10h1v1h-1zM8 10h1v1h-1zM9 10h1v1h-1zM10 10h1v1h-1zM12 10h1v1h-1zM15 10h1v1h-1zM16 10h1v1h-1zM17 10h1v1h-1zM19 10h1v1h-1zM20 10h1v1h-1zM22 10h1v1h-1zM23 10h1v1h-1zM24 10h1v1h-1zM25 10h1v1h-1zM26 10h1v1h-1zM28 10h1v1h-1zM30 10h1v1h-1zM31 10h1v1h-1zM32 10h1v1h-1zM34 10h1v1h-1zM6 11h1v1h-1zM12 11h1v1h-1zM14 11h1v1h-1zM15 11h1v1h-1zM18 11h1v1h-1zM19 11h1v1h-1zM20 11h1v1h-1zM21 11h1v1h-1zM22 11h1v1h-1zM23 11h1v1h-1zM28 11h1v1h-1zM34 11h1v1h-1zM6 12h1v1h-1zM7 12h1v1h-1zM8 12h1v1h-1zM9 12h1v1h-1zM10 12h1v1h-1zM11 12h1v1h-1zM12 12h1v1h-1zM14 12h1v1h-1zM16 12h1v1h-1zM18 12h1v1h-1zM20 12h1v1h-1zM22 12h1v1h-1zM24 12h1v1h-1zM26 12h1v1h-1zM28 12h1v1h-1zM29 12h1v1h-1zM30 12h1v1h-1zM31 12h1v1h-1zM32 12h1v1h-1zM33 12h1v1h-1zM34 12h1v1h-1zM15 13h1v1h-1zM16 13h1v1h-1zM17 13h1v1h-1zM20 13h1v1h-1zM22 13h1v1h-1zM24 13h1v1h-1zM6 14h1v1h-1zM7 14h1v1h-1zM8 14h1v1h-1zM9 14h1v1h-1zM10 14h1v1h-1zM12 14h1v1h-1zM13 14h1v1h-1zM14 14h1v1h-1zM15 14h1v1h-1zM19 14h1v1h-1zM20 14h1v1h-1zM23 14h1v1h-1zM26 14h1v1h-1zM27 14h1v1h-1zM29 14h1v1h-1zM31 14h1v1h-1zM33 14h1v1h-1zM7 15h1v1h-1zM11 15h1v1h-1zM17 15h1v1h-1zM20 15h1v1h-1zM22 15h1v1h-1zM23 15h1v1h-1zM24 15h1v1h-1zM25 15h1v1h-1zM26 15h1v1h-1zM27 15h1v1h-1zM28 15h1v1h-1zM29 15h1v1h-1zM30 15h1v1h-1zM34 15h1v1h-1zM8 16h1v1h-1zM10 16h1v1h-1zM12 16h1v1h-1zM14 16h1v1h-1zM16 16h1v1h-1zM19 16h1v1h-1zM21 16h1v1h-1zM22 16h1v1h-1zM23 16h1v1h-1zM26 16h1v1h-1zM29 16h1v1h-1zM30 16h1v1h-1zM6 17h1v1h-1zM7 17h1v1h-1zM8 17h1v1h-1zM14 17h1v1h-1zM18 17h1v1h-1zM25 17h1v1h-1zM29 17h1v1h-1zM30 17h1v1h-1zM31 17h1v1h-1zM33 17h1v1h-1zM6 18h1v1h-1zM7 18h1v1h-1zM8 18h1v1h-1zM9 18h1v1h-1zM10 18h1v1h-1zM12 18h1v1h-1zM13 18h1v1h-1zM15 18h1v1h-1zM16 18h1v1h-1zM17 18h1v1h-1zM18 18h1v1h-1zM19 18h1v1h-1zM20 18h1v1h-1zM21 18h1v1h-1zM23 18h1v1h-1zM31 18h1v1h-1zM32 18h1v1h-1zM7 19h1v1h-1zM8 19h1v1h-1zM9 19h1v1h-1zM10 19h1v1h-1zM11 19h1v1h-1zM14 19h1v1h-1zM15 19h1v1h-1zM17 19h1v1h-1zM19 19h1v1h-1zM22 19h1v1h-1zM23 19h1v1h-1zM24 19h1v1h-1zM25 19h1v1h-1zM26 19h1v1h-1zM28 19h1v1h-1zM29 19h1v1h-1zM30 19h1v1h-1zM34 19h1v1h-1zM10 20h1v1h-1zM11 20h1v1h-1zM12 20h1v1h-1zM13 20h1v1h-1zM14 20h1v1h-1zM15 20h1v1h-1zM16 20h1v1h-1zM18 20h1v1h-1zM19 20h1v1h-1zM20 20h1v1h-1zM21 20h1v1h-1zM23 20h1v1h-1zM26 20h1v1h-1zM31 20h1v1h-1zM32 20h1v1h-1zM8 21h1v1h-1zM9 21h1v1h-1zM11 21h1v1h-1zM16 21h1v1h-1zM20 21h1v1h-1zM22 21h1v1h-1zM24 21h1v1h-1zM26 21h1v1h-1zM27 21h1v1h-1zM30 21h1v1h-1zM33 21h1v1h-1zM8 22h1v1h-1zM9 22h1v1h-1zM10 22h1v1h-1zM11 22h1v1h-1zM12 22h1v1h-1zM14 22h1v1h-1zM16 22h1v1h-1zM17 22h1v1h-1zM18 22h1v1h-1zM19 22h1v1h-1zM20 22h1v1h-1zM23 22h1v1h-1zM25 22h1v1h-1zM29 22h1v1h-1zM31 22h1v1h-1zM32 22h1v1h-1zM6 23h1v1h-1zM9 23h1v1h-1zM10 23h1v1h-1zM11 23h1v1h-1zM15 23h1v1h-1zM16 23h1v1h-1zM17 23h1v1h-1zM25 23h1v1h-1zM28 23h1v1h-1zM29 23h1v1h-1zM30 23h1v1h-1zM32 23h1v1h-1zM34 23h1v1h-1zM6 24h1v1h-1zM10 24h1v1h-1zM11 24h1v1h-1zM12 24h1v1h-1zM13 24h1v1h-1zM15 24h1v1h-1zM18 24h1v1h-1zM19 24h1v1h-1zM21 24h1v1h-1zM23 24h1v1h-1zM24 24h1v1h-1zM26 24h1v1h-1zM30 24h1v1h-1zM32 24h1v1h-1zM6 25h1v1h-1zM9 25h1v1h-1zM11 25h1v1h-1zM13 25h1v1h-1zM14 25h1v1h-1zM17 25h1v1h-1zM24 25h1v1h-1zM26 25h1v1h-1zM28 25h1v1h-1zM29 25h1v1h-1zM30 25h1v1h-1zM33 25h1v1h-1zM6 26h1v1h-1zM7 26h1v1h-1zM10 26h1v1h-1zM12 26h1v1h-1zM13 26h1v1h-1zM14 26h1v1h-1zM16 26h1v1h-1zM18 26h1v1h-1zM19 26h1v1h-1zM20 26h1v1h-1zM21 26h1v1h-1zM22 26h1v1h-1zM23 26h1v1h-1zM26 26h1v1h-1zM27 26h1v1h-1zM28 26h1v1h-1zM29 26h1v1h-1zM30 26h1v1h-1zM32 26h1v1h-1zM33 26h1v1h-1zM34 26h1v1h-1zM14 27h1v1h-1zM15 27h1v1h-1zM16 27h1v1h-1zM17 27h1v1h-1zM18 27h1v1h-1zM19 27h1v1h-1zM22 27h1v1h-1zM24 27h1v1h-1zM26 27h1v1h-1zM30 27h1v1h-1zM31 27h1v1h-1zM32 27h1v1h-1zM33 27h1v1h-1zM34 27h1v1h-1zM6 28h1v1h-1zM7 28h1v1h-1zM8 28h1v1h-1zM9 28h1v1h-1zM10 28h1v1h-1zM11 28h1v1h-1zM12 28h1v1h-1zM14 28h1v1h-1zM19 28h1v1h-1zM20 28h1v1h-1zM21 28h1v1h-1zM22 28h1v1h-1zM25 28h1v1h-1zM26 28h1v1h-1zM28 28h1v1h-1zM30 28h1v1h-1zM31 28h1v1h-1zM32 28h1v1h-1zM6 29h1v1h-1zM12 29h1v1h-1zM15 29h1v1h-1zM18 29h1v1h-1zM20 29h1v1h-1zM21 29h1v1h-1zM22 29h1v1h-1zM25 29h1v1h-1zM26 29h1v1h-1zM30 29h1v1h-1zM33 29h1v1h-1zM6 30h1v1h-1zM8 30h1v1h-1zM9 30h1v1h-1zM10 30h1v1h-1zM12 30h1v1h-1zM14 30h1v1h-1zM19 30h1v1h-1zM20 30h1v1h-1zM21 30h1v1h-1zM23 30h1v1h-1zM26 30h1v1h-1zM27 30h1v1h-1zM28 30h1v1h-1zM29 30h1v1h-1zM30 30h1v1h-1zM32 30h1v1h-1zM6 31h1v1h-1zM8 31h1v1h-1zM9 31h1v1h-1zM10 31h1v1h-1zM12 31h1v1h-1zM14 31h1v1h-1zM15 31h1v1h-1zM16 31h1v1h-1zM17 31h1v1h-1zM18 31h1v1h-1zM20 31h1v1h-1zM22 31h1v1h-1zM23 31h1v1h-1zM24 31h1v1h-1zM25 31h1v1h-1zM26 31h1v1h-1zM29 31h1v1h-1zM31 31h1v1h-1zM32 31h1v1h-1zM34 31h1v1h-1zM6 32h1v1h-1zM8 32h1v1h-1zM9 32h1v1h-1zM10 32h1v1h-1zM12 32h1v1h-1zM14 32h1v1h-1zM20 32h1v1h-1zM21 32h1v1h-1zM23 32h1v1h-1zM27 32h1v1h-1zM28 32h1v1h-1zM29 32h1v1h-1zM30 32h1v1h-1zM31 32h1v1h-1zM32 32h1v1h-1zM33 32h1v1h-1zM6 33h1v1h-1zM12 33h1v1h-1zM14 33h1v1h-1zM16 33h1v1h-1zM21 33h1v1h-1zM22 33h1v1h-1zM24 33h1v1h-1zM25 33h1v1h-1zM26 33h1v1h-1zM27 33h1v1h-1zM28 33h1v1h-1zM29 33h1v1h-1zM31 33h1v1h-1zM33 33h1v1h-1zM6 34h1v1h-1zM7 34h1v1h-1zM8 34h1v1h-1zM9 34h1v1h-1zM10 34h1v1h-1zM11 34h1v1h-1zM12 34h1v1h-1zM14 34h1v1h-1zM17 34h1v1h-1zM19 34h1v1h-1zM21 34h1v1h-1zM23 34h1v1h-1zM25 34h1v1h-1zM30 34h1v1h-1zM31 34h1v1h-1zM32 34h1v1h-1z" fill="#102c1e"/></svg>